<svg preserveAspectRatio="none" overflow="visible" style="display: block;" width="18" height="18" viewBox="0 0 18 18" fill="none" xmlns="http://www.w3.org/2000/svg">
<g id="youtube">
<path id="vector" d="M1.87434 5.25041C1.35042 7.72266 1.35042 10.2772 1.87434 12.7495C1.94318 13.0005 2.07618 13.2294 2.26028 13.4134C2.44437 13.5975 2.67322 13.7305 2.9243 13.7994C6.94674 14.4658 11.0515 14.4658 15.0739 13.7994C15.325 13.7305 15.5538 13.5975 15.7379 13.4134C15.922 13.2294 16.055 13.0005 16.1239 12.7495C16.6478 10.2772 16.6478 7.72266 16.1239 5.25041C16.055 4.99935 15.922 4.77053 15.7379 4.58645C15.5538 4.40237 15.325 4.26938 15.0739 4.20054C11.0514 3.53422 6.94675 3.53422 2.9243 4.20054C2.67322 4.26938 2.44437 4.40237 2.26028 4.58645C2.07618 4.77053 1.94318 4.99935 1.87434 5.25041Z" stroke="#00E5FF" stroke-width="2" stroke-linecap="round"/>
<path id="play" d="M7.4 6.9L11 9L7.4 11.1Z" fill="#00E5FF" stroke="#00E5FF" stroke-width="1" stroke-linejoin="round"/>
</g>
</svg>
